<mxfile host="Electron" agent="Mozilla/5.0 (Windows NT 10.0; Win64; x64) AppleWebKit/537.36 (KHTML, like Gecko) draw.io/24.7.17 Chrome/128.0.6613.36 Electron/32.0.1 Safari/537.36" version="24.7.17">
  <diagram name="Page-1" id="xo0gVhxSKH94uNnL-2j7">
    <mxGraphModel dx="587" dy="879" grid="1" gridSize="10" guides="1" tooltips="1" connect="1" arrows="1" fold="1" page="1" pageScale="1" pageWidth="827" pageHeight="1169" math="0" shadow="0">
      <root>
        <mxCell id="0" />
        <mxCell id="1" parent="0" />
        <mxCell id="2c5nT9sCbL9kFtJfMkCs-3" value="" style="edgeStyle=orthogonalEdgeStyle;rounded=0;orthogonalLoop=1;jettySize=auto;html=1;" edge="1" parent="1" source="2c5nT9sCbL9kFtJfMkCs-1" target="2c5nT9sCbL9kFtJfMkCs-2">
          <mxGeometry relative="1" as="geometry" />
        </mxCell>
        <mxCell id="2c5nT9sCbL9kFtJfMkCs-19" value="Start" style="edgeLabel;html=1;align=center;verticalAlign=middle;resizable=0;points=[];" vertex="1" connectable="0" parent="2c5nT9sCbL9kFtJfMkCs-3">
          <mxGeometry x="-0.1792" y="-2" relative="1" as="geometry">
            <mxPoint as="offset" />
          </mxGeometry>
        </mxCell>
        <mxCell id="2c5nT9sCbL9kFtJfMkCs-1" value="" style="ellipse;" vertex="1" parent="1">
          <mxGeometry x="430" y="30" width="10" height="10" as="geometry" />
        </mxCell>
        <mxCell id="2c5nT9sCbL9kFtJfMkCs-5" value="" style="edgeStyle=orthogonalEdgeStyle;rounded=0;orthogonalLoop=1;jettySize=auto;html=1;" edge="1" parent="1" source="2c5nT9sCbL9kFtJfMkCs-2" target="2c5nT9sCbL9kFtJfMkCs-4">
          <mxGeometry relative="1" as="geometry" />
        </mxCell>
        <mxCell id="2c5nT9sCbL9kFtJfMkCs-18" value="&lt;b&gt;&quot;Enter text height (4-10mm)&quot;&lt;/b&gt;" style="edgeLabel;html=1;align=center;verticalAlign=middle;resizable=0;points=[];" vertex="1" connectable="0" parent="2c5nT9sCbL9kFtJfMkCs-5">
          <mxGeometry x="-0.075" y="-2" relative="1" as="geometry">
            <mxPoint as="offset" />
          </mxGeometry>
        </mxCell>
        <mxCell id="2c5nT9sCbL9kFtJfMkCs-2" value="Display Prompt" style="rounded=1;whiteSpace=wrap;html=1;" vertex="1" parent="1">
          <mxGeometry x="375" y="95" width="120" height="60" as="geometry" />
        </mxCell>
        <mxCell id="2c5nT9sCbL9kFtJfMkCs-8" value="" style="edgeStyle=orthogonalEdgeStyle;rounded=0;orthogonalLoop=1;jettySize=auto;html=1;" edge="1" parent="1" source="2c5nT9sCbL9kFtJfMkCs-4" target="2c5nT9sCbL9kFtJfMkCs-7">
          <mxGeometry relative="1" as="geometry" />
        </mxCell>
        <mxCell id="2c5nT9sCbL9kFtJfMkCs-20" value="&lt;b&gt;Get float input&lt;/b&gt;" style="edgeLabel;html=1;align=center;verticalAlign=middle;resizable=0;points=[];" vertex="1" connectable="0" parent="2c5nT9sCbL9kFtJfMkCs-8">
          <mxGeometry x="-0.1107" relative="1" as="geometry">
            <mxPoint as="offset" />
          </mxGeometry>
        </mxCell>
        <mxCell id="2c5nT9sCbL9kFtJfMkCs-4" value="GetInput" style="rounded=1;whiteSpace=wrap;html=1;" vertex="1" parent="1">
          <mxGeometry x="375" y="235" width="120" height="45" as="geometry" />
        </mxCell>
        <mxCell id="2c5nT9sCbL9kFtJfMkCs-10" value="" style="edgeStyle=orthogonalEdgeStyle;rounded=0;orthogonalLoop=1;jettySize=auto;html=1;" edge="1" parent="1" source="2c5nT9sCbL9kFtJfMkCs-7" target="2c5nT9sCbL9kFtJfMkCs-9">
          <mxGeometry relative="1" as="geometry" />
        </mxCell>
        <mxCell id="2c5nT9sCbL9kFtJfMkCs-21" value="&lt;b&gt;height &amp;lt; 4.0 || height &amp;gt; 10.0&lt;/b&gt;" style="edgeLabel;html=1;align=center;verticalAlign=middle;resizable=0;points=[];" vertex="1" connectable="0" parent="2c5nT9sCbL9kFtJfMkCs-10">
          <mxGeometry x="-0.2272" y="-2" relative="1" as="geometry">
            <mxPoint x="7" as="offset" />
          </mxGeometry>
        </mxCell>
        <mxCell id="2c5nT9sCbL9kFtJfMkCs-7" value="ValidateHeight" style="rounded=1;whiteSpace=wrap;html=1;" vertex="1" parent="1">
          <mxGeometry x="375" y="350" width="120" height="60" as="geometry" />
        </mxCell>
        <mxCell id="2c5nT9sCbL9kFtJfMkCs-26" style="edgeStyle=orthogonalEdgeStyle;rounded=0;orthogonalLoop=1;jettySize=auto;html=1;exitX=0.5;exitY=1;exitDx=0;exitDy=0;entryX=0.5;entryY=0;entryDx=0;entryDy=0;" edge="1" parent="1" source="2c5nT9sCbL9kFtJfMkCs-9" target="2c5nT9sCbL9kFtJfMkCs-25">
          <mxGeometry relative="1" as="geometry" />
        </mxCell>
        <mxCell id="2c5nT9sCbL9kFtJfMkCs-9" value="Check Range" style="rounded=1;whiteSpace=wrap;html=1;" vertex="1" parent="1">
          <mxGeometry x="375" y="500" width="120" height="40" as="geometry" />
        </mxCell>
        <mxCell id="2c5nT9sCbL9kFtJfMkCs-32" style="edgeStyle=orthogonalEdgeStyle;rounded=0;orthogonalLoop=1;jettySize=auto;html=1;exitX=0.5;exitY=1;exitDx=0;exitDy=0;entryX=0.5;entryY=0;entryDx=0;entryDy=0;curved=1;" edge="1" parent="1" source="2c5nT9sCbL9kFtJfMkCs-11" target="2c5nT9sCbL9kFtJfMkCs-13">
          <mxGeometry relative="1" as="geometry" />
        </mxCell>
        <mxCell id="2c5nT9sCbL9kFtJfMkCs-34" value="return valid height" style="edgeLabel;html=1;align=center;verticalAlign=middle;resizable=0;points=[];" vertex="1" connectable="0" parent="2c5nT9sCbL9kFtJfMkCs-32">
          <mxGeometry x="-0.1504" y="-1" relative="1" as="geometry">
            <mxPoint as="offset" />
          </mxGeometry>
        </mxCell>
        <mxCell id="2c5nT9sCbL9kFtJfMkCs-11" value="ReturnHeight" style="rounded=1;whiteSpace=wrap;html=1;" vertex="1" parent="1">
          <mxGeometry x="450" y="670" width="90" height="40" as="geometry" />
        </mxCell>
        <mxCell id="2c5nT9sCbL9kFtJfMkCs-13" value="" style="ellipse;" vertex="1" parent="1">
          <mxGeometry x="490" y="760" width="10" height="10" as="geometry" />
        </mxCell>
        <mxCell id="2c5nT9sCbL9kFtJfMkCs-23" style="edgeStyle=orthogonalEdgeStyle;rounded=0;orthogonalLoop=1;jettySize=auto;html=1;exitX=0.5;exitY=0;exitDx=0;exitDy=0;entryX=0;entryY=0.5;entryDx=0;entryDy=0;curved=1;" edge="1" parent="1" source="2c5nT9sCbL9kFtJfMkCs-22" target="2c5nT9sCbL9kFtJfMkCs-2">
          <mxGeometry relative="1" as="geometry">
            <Array as="points">
              <mxPoint x="325" y="125" />
            </Array>
          </mxGeometry>
        </mxCell>
        <mxCell id="2c5nT9sCbL9kFtJfMkCs-22" value="DisplayError" style="rounded=1;whiteSpace=wrap;html=1;" vertex="1" parent="1">
          <mxGeometry x="260" y="660" width="90" height="40" as="geometry" />
        </mxCell>
        <mxCell id="2c5nT9sCbL9kFtJfMkCs-27" style="rounded=0;orthogonalLoop=1;jettySize=auto;html=1;exitX=0;exitY=1;exitDx=0;exitDy=0;entryX=1;entryY=0;entryDx=0;entryDy=0;" edge="1" parent="1" source="2c5nT9sCbL9kFtJfMkCs-25" target="2c5nT9sCbL9kFtJfMkCs-22">
          <mxGeometry relative="1" as="geometry" />
        </mxCell>
        <mxCell id="2c5nT9sCbL9kFtJfMkCs-29" value="yes" style="edgeLabel;html=1;align=center;verticalAlign=middle;resizable=0;points=[];" vertex="1" connectable="0" parent="2c5nT9sCbL9kFtJfMkCs-27">
          <mxGeometry x="0.0485" y="2" relative="1" as="geometry">
            <mxPoint x="-5" as="offset" />
          </mxGeometry>
        </mxCell>
        <mxCell id="2c5nT9sCbL9kFtJfMkCs-28" style="rounded=0;orthogonalLoop=1;jettySize=auto;html=1;exitX=1;exitY=1;exitDx=0;exitDy=0;entryX=0.5;entryY=0;entryDx=0;entryDy=0;" edge="1" parent="1" source="2c5nT9sCbL9kFtJfMkCs-25" target="2c5nT9sCbL9kFtJfMkCs-11">
          <mxGeometry relative="1" as="geometry" />
        </mxCell>
        <mxCell id="2c5nT9sCbL9kFtJfMkCs-30" value="no" style="edgeLabel;html=1;align=center;verticalAlign=middle;resizable=0;points=[];" vertex="1" connectable="0" parent="2c5nT9sCbL9kFtJfMkCs-28">
          <mxGeometry x="-0.0006" y="-3" relative="1" as="geometry">
            <mxPoint x="2" y="-4" as="offset" />
          </mxGeometry>
        </mxCell>
        <mxCell id="2c5nT9sCbL9kFtJfMkCs-25" value="&lt;span style=&quot;font-size: 11px; text-wrap: nowrap; background-color: rgb(24, 20, 29);&quot;&gt;Range invalid?&lt;/span&gt;" style="rhombus;whiteSpace=wrap;html=1;" vertex="1" parent="1">
          <mxGeometry x="385" y="570" width="100" height="60" as="geometry" />
        </mxCell>
        <mxCell id="2c5nT9sCbL9kFtJfMkCs-31" style="edgeStyle=orthogonalEdgeStyle;rounded=0;orthogonalLoop=1;jettySize=auto;html=1;exitX=0.5;exitY=1;exitDx=0;exitDy=0;" edge="1" parent="1" source="2c5nT9sCbL9kFtJfMkCs-11" target="2c5nT9sCbL9kFtJfMkCs-11">
          <mxGeometry relative="1" as="geometry" />
        </mxCell>
      </root>
    </mxGraphModel>
  </diagram>
</mxfile>
